<?xml version="1.0" encoding="utf-8"?>
<!-- Generator: Adobe Illustrator 24.0.2, SVG Export Plug-In . SVG Version: 6.00 Build 0)  -->
<svg version="1.1" id="Layer_1" xmlns="http://www.w3.org/2000/svg" xmlns:xlink="http://www.w3.org/1999/xlink" x="0px" y="0px"
	 viewBox="0 0 24 24" style="enable-background:new 0 0 24 24;" xml:space="preserve">
<g>
	<g>
		<circle cx="21" cy="6" r="1"/>
	</g>
	<g>
		<path d="M18,7H3C2.4477539,7,2,6.5527344,2,6s0.4477539-1,1-1h15c0.5522461,0,1,0.4472656,1,1S18.5522461,7,18,7z"/>
	</g>
	<g>
		<path d="M21,13H3c-0.5522461,0-1-0.4472656-1-1s0.4477539-1,1-1h18c0.5522461,0,1,0.4472656,1,1S21.5522461,13,21,13z"/>
	</g>
	<g>
		<path d="M21,19H3c-0.5522461,0-1-0.4472656-1-1s0.4477539-1,1-1h18c0.5522461,0,1,0.4472656,1,1S21.5522461,19,21,19z"/>
	</g>
</g>
</svg>
