<svg width="32" height="32" viewBox="0 0 32 32" fill="none" xmlns="http://www.w3.org/2000/svg">
<path d="M31 16C31 24.2843 24.2843 31 16 31C7.71573 31 1 24.2843 1 16C1 7.71573 7.71573 1 16 1C24.2843 1 31 7.71573 31 16Z" fill="url(#paint0_linear_47_86)"/>
<path fill-rule="evenodd" clip-rule="evenodd" d="M7.5791 10.9474C7.5791 10.4823 7.95612 10.1053 8.42121 10.1053H11.3686C11.8337 10.1053 12.2107 10.4823 12.2107 10.9474C12.2107 11.4124 11.8337 11.7895 11.3686 11.7895H8.42121C7.95612 11.7895 7.5791 11.4124 7.5791 10.9474ZM14.737 10.9474C14.737 10.4823 15.114 10.1053 15.5791 10.1053H23.5791C24.0442 10.1053 24.4212 10.4823 24.4212 10.9474C24.4212 11.4124 24.0442 11.7895 23.5791 11.7895H15.5791C15.114 11.7895 14.737 11.4124 14.737 10.9474Z" fill="white"/>
<path fill-rule="evenodd" clip-rule="evenodd" d="M13.4738 9.68421C12.7762 9.68421 12.2107 10.2497 12.2107 10.9474C12.2107 11.645 12.7762 12.2105 13.4738 12.2105C14.1714 12.2105 14.737 11.645 14.737 10.9474C14.737 10.2497 14.1714 9.68421 13.4738 9.68421ZM10.5265 10.9474C10.5265 9.31958 11.846 8 13.4738 8C15.1016 8 16.4212 9.31958 16.4212 10.9474C16.4212 12.5752 15.1016 13.8947 13.4738 13.8947C11.846 13.8947 10.5265 12.5752 10.5265 10.9474Z" fill="white"/>
<path fill-rule="evenodd" clip-rule="evenodd" d="M24.4212 16C24.4212 15.5349 24.0442 15.1579 23.5791 15.1579H21.8949C21.4298 15.1579 21.0528 15.5349 21.0528 16C21.0528 16.4651 21.4298 16.8421 21.8949 16.8421H23.5791C24.0442 16.8421 24.4212 16.4651 24.4212 16ZM18.5265 16C18.5265 15.5349 18.1494 15.1579 17.6844 15.1579H8.4212C7.95612 15.1579 7.5791 15.5349 7.5791 16C7.5791 16.4651 7.95612 16.8421 8.4212 16.8421H17.6844C18.1494 16.8421 18.5265 16.4651 18.5265 16Z" fill="white"/>
<path fill-rule="evenodd" clip-rule="evenodd" d="M19.7896 14.7368C20.4873 14.7368 21.0528 15.3024 21.0528 16C21.0528 16.6976 20.4873 17.2632 19.7896 17.2632C19.092 17.2632 18.5265 16.6976 18.5265 16C18.5265 15.3024 19.092 14.7368 19.7896 14.7368ZM22.737 16C22.737 14.3722 21.4174 13.0526 19.7896 13.0526C18.1618 13.0526 16.8423 14.3722 16.8423 16C16.8423 17.6278 18.1618 18.9474 19.7896 18.9474C21.4174 18.9474 22.737 17.6278 22.737 16Z" fill="white"/>
<path fill-rule="evenodd" clip-rule="evenodd" d="M7.5791 21.0526C7.5791 20.5875 7.95612 20.2105 8.42121 20.2105H12.6317C13.0968 20.2105 13.4738 20.5875 13.4738 21.0526C13.4738 21.5177 13.0968 21.8947 12.6317 21.8947H8.42121C7.95612 21.8947 7.5791 21.5177 7.5791 21.0526ZM16.0002 21.0526C16.0002 20.5875 16.3772 20.2105 16.8423 20.2105H23.5791C24.0442 20.2105 24.4212 20.5875 24.4212 21.0526C24.4212 21.5177 24.0442 21.8947 23.5791 21.8947H16.8423C16.3772 21.8947 16.0002 21.5177 16.0002 21.0526Z" fill="white"/>
<path fill-rule="evenodd" clip-rule="evenodd" d="M14.737 19.7895C14.0394 19.7895 13.4739 20.355 13.4739 21.0526C13.4739 21.7502 14.0394 22.3158 14.737 22.3158C15.4346 22.3158 16.0002 21.7502 16.0002 21.0526C16.0002 20.355 15.4346 19.7895 14.737 19.7895ZM11.7896 21.0526C11.7896 19.4248 13.1092 18.1053 14.737 18.1053C16.3648 18.1053 17.6844 19.4248 17.6844 21.0526C17.6844 22.6804 16.3648 24 14.737 24C13.1092 24 11.7896 22.6804 11.7896 21.0526Z" fill="white"/>
<defs>
<linearGradient id="paint0_linear_47_86" x1="16" y1="1" x2="16" y2="31" gradientUnits="userSpaceOnUse">
<stop stop-color="#57EAEA"/>
<stop offset="1" stop-color="#2BC9FF"/>
</linearGradient>
</defs>
</svg>
