<svg width="24" height="24" viewBox="0 0 24 24" fill="none" xmlns="http://www.w3.org/2000/svg">
<path fill-rule="evenodd" clip-rule="evenodd" d="M7.5 6C7.5 5.17157 8.17157 4.5 9 4.5C9.82843 4.5 10.5 5.17157 10.5 6C10.5 6.82843 9.82843 7.5 9 7.5C8.17157 7.5 7.5 6.82843 7.5 6ZM5.64494 5H3C2.44772 5 2 5.44772 2 6C2 6.55228 2.44772 7 3 7H5.64494C6.07521 8.44574 7.41449 9.5 9 9.5C10.5855 9.5 11.9248 8.44574 12.3551 7H21C21.5523 7 22 6.55228 22 6C22 5.44772 21.5523 5 21 5H12.3551C11.9248 3.55426 10.5855 2.5 9 2.5C7.41449 2.5 6.07521 3.55426 5.64494 5ZM22 12C22 11.4477 21.5523 11 21 11H19.8551C19.4248 9.55426 18.0855 8.5 16.5 8.5C14.9145 8.5 13.5752 9.55426 13.1449 11H3C2.44772 11 2 11.4477 2 12C2 12.5523 2.44772 13 3 13H13.1449C13.5752 14.4457 14.9145 15.5 16.5 15.5C18.0855 15.5 19.4248 14.4457 19.8551 13H21C21.5523 13 22 12.5523 22 12ZM15 12C15 12.8284 15.6716 13.5 16.5 13.5C17.3284 13.5 18 12.8284 18 12C18 11.1716 17.3284 10.5 16.5 10.5C15.6716 10.5 15 11.1716 15 12ZM2 18C2 17.4477 2.44772 17 3 17H7.14494C7.57521 15.5543 8.91449 14.5 10.5 14.5C12.0855 14.5 13.4248 15.5543 13.8551 17H21C21.5523 17 22 17.4477 22 18C22 18.5523 21.5523 19 21 19H13.8551C13.4248 20.4457 12.0855 21.5 10.5 21.5C8.91449 21.5 7.57521 20.4457 7.14494 19H3C2.44772 19 2 18.5523 2 18ZM12 18C12 17.1716 11.3284 16.5 10.5 16.5C9.67157 16.5 9 17.1716 9 18C9 18.8284 9.67157 19.5 10.5 19.5C11.3284 19.5 12 18.8284 12 18Z" fill="url(#paint0_linear_47_58)"/>
<defs>
<linearGradient id="paint0_linear_47_58" x1="12" y1="2.5" x2="12" y2="21.5" gradientUnits="userSpaceOnUse">
<stop offset="0.0572917" stop-color="#BFD537"/>
<stop offset="0.84375" stop-color="#306393"/>
</linearGradient>
</defs>
</svg>
