<svg width="20" height="18" viewBox="0 0 20 18" fill="none" xmlns="http://www.w3.org/2000/svg">
<path d="M18.13 2.05999C15.99 -0.0900055 12.5 -0.0900055 10.35 2.05999L10 2.40999L9.65001 2.05999C7.50001 -0.0900055 4.01001 -0.0900055 1.87001 2.05999C-0.279993 4.19999 -0.279993 7.68999 1.87001 9.83999L9.29001 17.26C9.48001 17.45 9.73001 17.55 10 17.55C10.27 17.55 10.52 17.45 10.71 17.26L18.13 9.83999C19.2 8.75999 19.74 7.35999 19.74 5.94999C19.74 4.53999 19.2 3.12999 18.13 2.05999ZM10 8.99999C9.44801 8.99999 9.00001 8.55199 9.00001 7.99999C9.00001 7.44799 9.44801 6.99999 10 6.99999C10.552 6.99999 11 7.44799 11 7.99999C11 8.55199 10.552 8.99999 10 8.99999Z" fill="url(#paint0_linear_0_36)"/>
<defs>
<linearGradient id="paint0_linear_0_36" x1="9.99876" y1="0.447495" x2="9.99876" y2="17.55" gradientUnits="userSpaceOnUse">
<stop offset="0.34375" stop-color="#F70000" stop-opacity="0.67"/>
<stop offset="0.911458" stop-color="#79DEEC" stop-opacity="0.77"/>
</linearGradient>
</defs>
</svg>
