<?xml version="1.0" encoding="utf-8"?>
<!-- Generator: Adobe Illustrator 16.0.0, SVG Export Plug-In . SVG Version: 6.00 Build 0)  -->
<!DOCTYPE svg PUBLIC "-//W3C//DTD SVG 1.0//EN" "http://www.w3.org/TR/2001/REC-SVG-20010904/DTD/svg10.dtd">
<svg version="1.0" id="Layer_1" xmlns="http://www.w3.org/2000/svg" xmlns:xlink="http://www.w3.org/1999/xlink" x="0px" y="0px"
	 width="100px" height="100px" viewBox="0 0 100 100" enable-background="new 0 0 100 100" xml:space="preserve">
<polygon points="58.269,38.844 66.387,46.963 74.407,22.9 70.625,16.598 "/>
<polygon points="41.731,38.844 33.613,46.963 25.593,22.9 29.375,16.598 "/>
<path d="M10,90h36.667V43.333c-5.518,5.521-15.971,15.97-15.971,15.97L20.088,27.477L10,30V90z"/>
<polygon points="50,40 33.333,10 50,10 66.667,10 "/>
<path d="M79.912,27.477L69.304,59.304c0,0-10.453-10.45-15.971-15.97V90H90V30L79.912,27.477z M83.333,73.333H60v-6.666h23.333
	V73.333z"/>
</svg>
