<svg width="48" height="32" viewBox="0 0 48 32" fill="none" xmlns="http://www.w3.org/2000/svg">
<g id="paypal-color-large">
<rect id="card_bg" width="48" height="32" rx="4" fill="white"/>
<path id="card_bg-2" fill-rule="evenodd" clip-rule="evenodd" d="M4 0H44C46.2091 0 48 1.79086 48 4V28C48 30.2091 46.2091 32 44 32H4C1.79086 32 0 30.2091 0 28V4C0 1.79086 1.79086 0 4 0ZM46 4C46 2.89543 45.1046 2 44 2H4C2.89543 2 2 2.89543 2 4V28C2 29.1046 2.89543 30 4 30H44C45.1046 30 46 29.1046 46 28V4Z" fill="#CCCCCB"/>
<g id="paypal">
<path id="Path" d="M20.34 25.32L20.69 23.12H19.91H16.23L18.79 6.86C18.7968 6.80962 18.8217 6.76343 18.86 6.73C18.9002 6.69894 18.9492 6.68143 19 6.68H25.21C27.28 6.68 28.7 7.11 29.45 7.96C29.7818 8.31653 30.0131 8.7548 30.12 9.23C30.2366 9.8075 30.2366 10.4025 30.12 10.98V11.48L30.47 11.68C30.7364 11.8128 30.9769 11.9923 31.18 12.21C31.4856 12.579 31.683 13.0256 31.75 13.5C31.8249 14.1202 31.7979 14.7485 31.67 15.36C31.5381 16.1028 31.2775 16.8169 30.9 17.47C30.5949 17.9936 30.1825 18.4469 29.69 18.8C29.1942 19.1381 28.6423 19.3852 28.06 19.53C27.4063 19.6949 26.7342 19.7756 26.06 19.77H25.57C25.2266 19.7701 24.894 19.8903 24.63 20.11C24.3646 20.3336 24.1903 20.6466 24.14 20.99V21.19L23.53 25.07V25.22C23.5372 25.2462 23.5372 25.2738 23.53 25.3H23.47L20.34 25.32Z" fill="#253D80"/>
<path id="Path_2" d="M30.8 11.08L30.74 11.45C29.92 15.65 27.11 17.11 23.53 17.11H21.71C21.2721 17.1095 20.8989 17.4276 20.83 17.86L19.9 23.78L19.63 25.46C19.6097 25.5945 19.6488 25.7312 19.737 25.8348C19.8252 25.9384 19.954 25.9986 20.09 26H23.33C23.7142 25.9996 24.0409 25.7196 24.1 25.34V25.18L24.71 21.31V21.1C24.7646 20.7219 25.088 20.441 25.47 20.44H26C29.13 20.44 31.59 19.17 32.3 15.44C32.6842 14.1651 32.4472 12.7839 31.66 11.71C31.4102 11.4538 31.1196 11.2409 30.8 11.08V11.08Z" fill="#189BD7"/>
<path id="Path_3" d="M29.94 10.74L29.56 10.64L29.14 10.56C28.6105 10.4808 28.0754 10.444 27.54 10.45H22.66C22.546 10.4469 22.4329 10.4709 22.33 10.52C22.0981 10.6286 21.9365 10.8466 21.9 11.1L20.9 17.67V17.86C20.9689 17.4276 21.3421 17.1095 21.78 17.11H23.6C27.18 17.11 29.99 15.65 30.81 11.45L30.87 11.08C30.6546 10.9687 30.4306 10.875 30.2 10.8L29.94 10.74Z" fill="#242E65"/>
<path id="Path_4" d="M21.9 11.1C21.9365 10.8466 22.0981 10.6286 22.33 10.52C22.4329 10.4709 22.546 10.4469 22.66 10.45H27.54C28.0754 10.444 28.6105 10.4808 29.14 10.56L29.56 10.64L29.94 10.74L30.13 10.8C30.3606 10.875 30.5846 10.9687 30.8 11.08C31.1251 9.83063 30.8271 8.50118 30 7.51C29 6.45 27.36 6 25.22 6H19C18.5621 5.99947 18.1889 6.31755 18.12 6.75L15.53 23.16C15.5068 23.3148 15.5519 23.472 15.6536 23.5909C15.7553 23.7098 15.9035 23.7788 16.06 23.78H19.9L20.9 17.67L21.9 11.1Z" fill="#253D80"/>
</g>
</g>
</svg>
