<svg width="34" height="34" viewBox="0 0 34 34" fill="none" xmlns="http://www.w3.org/2000/svg">
<path d="M2.01401 18.111L3.385 30.442C3.49375 31.4202 3.95936 32.324 4.69273 32.9804C5.42611 33.6368 6.37575 33.9999 7.36 34H26.64C27.6244 34.0001 28.5743 33.6372 29.3079 32.9808C30.0415 32.3243 30.5072 31.4204 30.616 30.442L31.987 18.111C32.0026 17.9712 31.9886 17.8296 31.9457 17.6956C31.9029 17.5615 31.8323 17.4381 31.7384 17.3333C31.6446 17.2284 31.5297 17.1445 31.4013 17.087C31.2728 17.0296 31.1337 17 30.993 17H3.007C2.86639 17.0001 2.72736 17.0299 2.59903 17.0873C2.4707 17.1448 2.35593 17.2288 2.26222 17.3336C2.16851 17.4385 2.09798 17.5618 2.05521 17.6958C2.01243 17.8298 1.9984 17.9713 2.01401 18.111ZM7 31C6.73478 31 6.48043 30.8946 6.29289 30.7071C6.10536 30.5196 6 30.2652 6 30V22C6 21.7348 6.10536 21.4804 6.29289 21.2929C6.48043 21.1054 6.73478 21 7 21C7.26522 21 7.51957 21.1054 7.70711 21.2929C7.89464 21.4804 8 21.7348 8 22V30C8 30.2652 7.89464 30.5196 7.70711 30.7071C7.51957 30.8946 7.26522 31 7 31ZM12 31C11.7348 31 11.4804 30.8946 11.2929 30.7071C11.1054 30.5196 11 30.2652 11 30V22C11 21.7348 11.1054 21.4804 11.2929 21.2929C11.4804 21.1054 11.7348 21 12 21C12.2652 21 12.5196 21.1054 12.7071 21.2929C12.8946 21.4804 13 21.7348 13 22V30C13 30.2652 12.8946 30.5196 12.7071 30.7071C12.5196 30.8946 12.2652 31 12 31ZM17 31C16.7348 31 16.4804 30.8946 16.2929 30.7071C16.1054 30.5196 16 30.2652 16 30V22C16 21.7348 16.1054 21.4804 16.2929 21.2929C16.4804 21.1054 16.7348 21 17 21C17.2652 21 17.5196 21.1054 17.7071 21.2929C17.8946 21.4804 18 21.7348 18 22V30C18 30.2652 17.8946 30.5196 17.7071 30.7071C17.5196 30.8946 17.2652 31 17 31ZM22 31C21.7348 31 21.4804 30.8946 21.2929 30.7071C21.1054 30.5196 21 30.2652 21 30V22C21 21.7348 21.1054 21.4804 21.2929 21.2929C21.4804 21.1054 21.7348 21 22 21C22.2652 21 22.5196 21.1054 22.7071 21.2929C22.8946 21.4804 23 21.7348 23 22V30C23 30.2652 22.8946 30.5196 22.7071 30.7071C22.5196 30.8946 22.2652 31 22 31ZM27 31C26.7348 31 26.4804 30.8946 26.2929 30.7071C26.1054 30.5196 26 30.2652 26 30V22C26 21.7348 26.1054 21.4804 26.2929 21.2929C26.4804 21.1054 26.7348 21 27 21C27.2652 21 27.5196 21.1054 27.7071 21.2929C27.8946 21.4804 28 21.7348 28 22V30C28 30.2652 27.8946 30.5196 27.7071 30.7071C27.5196 30.8946 27.2652 31 27 31Z" fill="#42C79F" fill-opacity="0.3"/>
<path d="M27.851 15.179C27.8929 15.4094 28.0144 15.6178 28.1942 15.7678C28.374 15.9179 28.6008 16 28.835 16H30.78C30.9284 16.0002 31.075 15.9674 31.2091 15.9039C31.3432 15.8404 31.4615 15.7478 31.5554 15.6329C31.6493 15.5181 31.7165 15.3837 31.7521 15.2396C31.7876 15.0956 31.7907 14.9454 31.761 14.8L29.161 1.79999C29.1149 1.57395 28.992 1.37084 28.8132 1.22504C28.6344 1.07924 28.4107 0.999723 28.18 1H5.81501C5.58448 0.999954 5.36101 1.07956 5.18243 1.22534C5.00384 1.37112 4.88112 1.57412 4.83501 1.79999L2.14101 14.839C2.11112 14.9854 2.1144 15.1366 2.15063 15.2816C2.18686 15.4265 2.25511 15.5615 2.35036 15.6766C2.44562 15.7917 2.56545 15.884 2.70106 15.9467C2.83667 16.0094 2.98461 16.041 3.13401 16.039L5.17701 16.011C5.40879 16.0078 5.63226 15.9242 5.8092 15.7744C5.98613 15.6247 6.10554 15.4181 6.14701 15.19L7.84701 5.82098C7.88893 5.59057 8.01039 5.38221 8.19021 5.23218C8.37003 5.08214 8.59681 4.99997 8.831 5H25.161C25.3952 4.99997 25.622 5.08214 25.8018 5.23218C25.9816 5.38221 26.1031 5.59057 26.145 5.82098L27.851 15.179Z" fill="#4EE6CB" fill-opacity="0.3"/>
<path d="M33 13H1C0.447715 13 0 13.4477 0 14V17C0 17.5523 0.447715 18 1 18H33C33.5523 18 34 17.5523 34 17V14C34 13.4477 33.5523 13 33 13Z" fill="#53E4ED" fill-opacity="0.3"/>
<path d="M23 0H11C10.4477 0 10 0.447715 10 1V4.667C10 5.21928 10.4477 5.667 11 5.667H23C23.5523 5.667 24 5.21928 24 4.667V1C24 0.447715 23.5523 0 23 0Z" fill="#57FF86" fill-opacity="0.3"/>
<path d="M6 15.5H2C1.86739 15.5 1.74022 15.4473 1.64645 15.3536C1.55269 15.2598 1.5 15.1326 1.5 15C1.5 14.8674 1.55269 14.7402 1.64645 14.6464C1.74022 14.5527 1.86739 14.5 2 14.5H6C6.13261 14.5 6.25978 14.5527 6.35355 14.6464C6.44731 14.7402 6.5 14.8674 6.5 15C6.5 15.1326 6.44731 15.2598 6.35355 15.3536C6.25978 15.4473 6.13261 15.5 6 15.5Z" fill="#F5F5F5" fill-opacity="0.3"/>
<path d="M9 15.5H8C7.86739 15.5 7.74022 15.4473 7.64645 15.3536C7.55269 15.2598 7.5 15.1326 7.5 15C7.5 14.8674 7.55269 14.7402 7.64645 14.6464C7.74022 14.5527 7.86739 14.5 8 14.5H9C9.13261 14.5 9.25978 14.5527 9.35355 14.6464C9.44731 14.7402 9.5 14.8674 9.5 15C9.5 15.1326 9.44731 15.2598 9.35355 15.3536C9.25978 15.4473 9.13261 15.5 9 15.5Z" fill="#F5F5F5" fill-opacity="0.3"/>
</svg>
