<svg width="48" height="32" viewBox="0 0 48 32" fill="none" xmlns="http://www.w3.org/2000/svg">
<g id="bitcoin-light-large">
<rect id="card_bg" width="48" height="32" rx="4" fill="#DFE3E8"/>
<g id="bitcoin">
<path id="Path" d="M34.29 18.57C32.8701 24.2468 27.1187 27.6991 21.441 26.2827C15.7633 24.8662 12.3075 19.1169 13.7204 13.4384C15.1334 7.75987 20.8806 4.30051 26.56 5.70999C29.2918 6.38796 31.6418 8.12458 33.0918 10.537C34.5419 12.9494 34.973 15.8394 34.29 18.57Z" fill="#F7941F"/>
<path id="Shape" fill-rule="evenodd" clip-rule="evenodd" d="M28.68 14.49C28.89 13.08 27.81 12.32 26.34 11.81L26.82 9.9L25.66 9.61L25.19 11.47L24.26 11.25L24.73 9.38L23.56 9.09L23.09 11L22.34 10.83L20.73 10.43L20.42 11.67C20.42 11.67 21.28 11.87 21.27 11.88C21.6052 11.9217 21.8453 12.2241 21.81 12.56L21.27 14.74H21.26L20.5 17.74C20.4656 17.8462 20.3905 17.9343 20.291 17.985C20.1916 18.0356 20.0761 18.0446 19.97 18.01L19.12 17.8L18.55 19.13L20.06 19.51L20.89 19.73L20.41 21.66L21.57 21.95L22.05 20.04L22.97 20.28L22.5 22.18L23.66 22.47L24.15 20.54C26.15 20.92 27.62 20.76 28.25 18.97C28.5229 18.4602 28.5618 17.8572 28.3567 17.3165C28.1516 16.7758 27.7224 16.3504 27.18 16.15C28.0033 15.9775 28.6118 15.2791 28.67 14.44L28.68 14.49ZM26 18.22C25.6708 19.5367 23.6025 18.9973 22.6544 18.75L22.6544 18.75C22.5657 18.7268 22.4868 18.7063 22.42 18.69L23.05 16.12C23.1314 16.1406 23.2313 16.1632 23.3445 16.1889L23.3446 16.1889C24.3306 16.4123 26.3319 16.8656 26 18.22ZM23.5459 14.9988C24.3247 15.2074 26.0573 15.6715 26.36 14.47H26.38C26.6828 13.25 25.0346 12.8706 24.2464 12.6891C24.1496 12.6668 24.0657 12.6475 24 12.63L23.36 14.95C23.413 14.9633 23.4756 14.98 23.5459 14.9988Z" fill="white"/>
</g>
</g>
</svg>
